{
  "version": "0.6.0",
  "modules": [
    {
      "plugin": "cf",
      "version": "0.6.0",
      "model": "MASTER",
      "pos": [
        60,
        0
      ],
      "params": [
        {
          "paramId": 0,
          "value": 5.0
        },
        {
          "paramId": 1,
          "value": 0.0
        }
      ],
      "data": {
        "onstate": 1
      }
    },
    {
      "plugin": "cf",
      "version": "0.6.0",
      "model": "MONO",
      "pos": [
        48,
        0
      ],
      "params": [
        {
          "paramId": 0,
          "value": 0.0
        },
        {
          "paramId": 1,
          "value": 5.0
        },
        {
          "paramId": 2,
          "value": 0.0
        },
        {
          "paramId": 3,
          "value": 0.0
        }
      ],
      "data": {
        "solostate": 0,
        "onstate": 1
      }
    },
    {
      "plugin": "cf",
      "version": "0.6.0",
      "model": "STEREO",
      "pos": [
        6,
        0
      ],
      "params": [
        {
          "paramId": 0,
          "value": 0.0
        },
        {
          "paramId": 1,
          "value": 5.0
        },
        {
          "paramId": 2,
          "value": 0.0
        },
        {
          "paramId": 3,
          "value": 0.0
        }
      ],
      "data": {
        "solostate": 0,
        "onstate": 1
      }
    },
    {
      "plugin": "cf",
      "version": "0.6.0",
      "model": "MONO",
      "pos": [
        42,
        0
      ],
      "params": [
        {
          "paramId": 0,
          "value": 0.0
        },
        {
          "paramId": 1,
          "value": 5.0
        },
        {
          "paramId": 2,
          "value": 0.0
        },
        {
          "paramId": 3,
          "value": 0.0
        }
      ],
      "data": {
        "solostate": 0,
        "onstate": 1
      }
    },
    {
      "plugin": "cf",
      "version": "0.6.0",
      "model": "MONO",
      "pos": [
        54,
        0
      ],
      "params": [
        {
          "paramId": 0,
          "value": 0.0
        },
        {
          "paramId": 1,
          "value": 5.0
        },
        {
          "paramId": 2,
          "value": 0.0
        },
        {
          "paramId": 3,
          "value": 0.0
        }
      ],
      "data": {
        "solostate": 0,
        "onstate": 1
      }
    },
    {
      "plugin": "cf",
      "version": "0.6.0",
      "model": "STEREO",
      "pos": [
        0,
        0
      ],
      "params": [
        {
          "paramId": 0,
          "value": 0.0
        },
        {
          "paramId": 1,
          "value": 5.0
        },
        {
          "paramId": 2,
          "value": 0.0
        },
        {
          "paramId": 3,
          "value": 0.0
        }
      ],
      "data": {
        "solostate": 0,
        "onstate": 1
      }
    },
    {
      "plugin": "cf",
      "version": "0.6.0",
      "model": "MONO",
      "pos": [
        36,
        0
      ],
      "params": [
        {
          "paramId": 0,
          "value": 0.0
        },
        {
          "paramId": 1,
          "value": 5.0
        },
        {
          "paramId": 2,
          "value": 0.0
        },
        {
          "paramId": 3,
          "value": 0.0
        }
      ],
      "data": {
        "solostate": 0,
        "onstate": 1
      }
    },
    {
      "plugin": "cf",
      "version": "0.6.0",
      "model": "MONO",
      "pos": [
        30,
        0
      ],
      "params": [
        {
          "paramId": 0,
          "value": 0.0
        },
        {
          "paramId": 1,
          "value": 5.0
        },
        {
          "paramId": 2,
          "value": 0.0
        },
        {
          "paramId": 3,
          "value": 0.0
        }
      ],
      "data": {
        "solostate": 0,
        "onstate": 1
      }
    },
    {
      "plugin": "cf",
      "version": "0.6.0",
      "model": "MONO",
      "pos": [
        24,
        0
      ],
      "params": [
        {
          "paramId": 0,
          "value": 0.0
        },
        {
          "paramId": 1,
          "value": 5.0
        },
        {
          "paramId": 2,
          "value": 0.0
        },
        {
          "paramId": 3,
          "value": 0.0
        }
      ],
      "data": {
        "solostate": 0,
        "onstate": 1
      }
    },
    {
      "plugin": "cf",
      "version": "0.6.0",
      "model": "MONO",
      "pos": [
        18,
        0
      ],
      "params": [
        {
          "paramId": 0,
          "value": 0.0
        },
        {
          "paramId": 1,
          "value": 5.0
        },
        {
          "paramId": 2,
          "value": 0.0
        },
        {
          "paramId": 3,
          "value": 0.0
        }
      ],
      "data": {
        "solostate": 0,
        "onstate": 1
      }
    },
    {
      "plugin": "cf",
      "version": "0.6.0",
      "model": "STEREO",
      "pos": [
        12,
        0
      ],
      "params": [
        {
          "paramId": 0,
          "value": 0.0
        },
        {
          "paramId": 1,
          "value": 5.0
        },
        {
          "paramId": 2,
          "value": 0.0
        },
        {
          "paramId": 3,
          "value": 0.0
        }
      ],
      "data": {
        "solostate": 0,
        "onstate": 1
      }
    }
  ],
  "wires": [
    {
      "color": {
        "r": 0.0352941193,
        "g": 0.525490224,
        "b": 0.678431392,
        "a": 1.0
      },
      "outputModuleId": 4,
      "outputId": 0,
      "inputModuleId": 5,
      "inputId": 4
    },
    {
      "color": {
        "r": 0.788235366,
        "g": 0.0941176564,
        "b": 0.278431386,
        "a": 1.0
      },
      "outputModuleId": 4,
      "outputId": 2,
      "inputModuleId": 0,
      "inputId": 3
    },
    {
      "color": {
        "r": 0.0352941193,
        "g": 0.525490224,
        "b": 0.678431392,
        "a": 1.0
      },
      "outputModuleId": 2,
      "outputId": 0,
      "inputModuleId": 10,
      "inputId": 4
    },
    {
      "color": {
        "r": 0.0352941193,
        "g": 0.525490224,
        "b": 0.678431392,
        "a": 1.0
      },
      "outputModuleId": 7,
      "outputId": 0,
      "inputModuleId": 6,
      "inputId": 4
    },
    {
      "color": {
        "r": 0.0470588282,
        "g": 0.556862772,
        "b": 0.0823529437,
        "a": 1.0
      },
      "outputModuleId": 5,
      "outputId": 1,
      "inputModuleId": 2,
      "inputId": 5
    },
    {
      "color": {
        "r": 0.0352941193,
        "g": 0.525490224,
        "b": 0.678431392,
        "a": 1.0
      },
      "outputModuleId": 5,
      "outputId": 0,
      "inputModuleId": 2,
      "inputId": 4
    },
    {
      "color": {
        "r": 0.0352941193,
        "g": 0.525490224,
        "b": 0.678431392,
        "a": 1.0
      },
      "outputModuleId": 10,
      "outputId": 0,
      "inputModuleId": 9,
      "inputId": 4
    },
    {
      "color": {
        "r": 0.0352941193,
        "g": 0.525490224,
        "b": 0.678431392,
        "a": 1.0
      },
      "outputModuleId": 9,
      "outputId": 0,
      "inputModuleId": 8,
      "inputId": 4
    },
    {
      "color": {
        "r": 0.0352941193,
        "g": 0.525490224,
        "b": 0.678431392,
        "a": 1.0
      },
      "outputModuleId": 8,
      "outputId": 0,
      "inputModuleId": 7,
      "inputId": 4
    },
    {
      "color": {
        "r": 0.0352941193,
        "g": 0.525490224,
        "b": 0.678431392,
        "a": 1.0
      },
      "outputModuleId": 6,
      "outputId": 0,
      "inputModuleId": 3,
      "inputId": 4
    },
    {
      "color": {
        "r": 0.0352941193,
        "g": 0.525490224,
        "b": 0.678431392,
        "a": 1.0
      },
      "outputModuleId": 3,
      "outputId": 0,
      "inputModuleId": 1,
      "inputId": 4
    },
    {
      "color": {
        "r": 0.0352941193,
        "g": 0.525490224,
        "b": 0.678431392,
        "a": 1.0
      },
      "outputModuleId": 1,
      "outputId": 0,
      "inputModuleId": 4,
      "inputId": 4
    },
    {
      "color": {
        "r": 0.0470588282,
        "g": 0.556862772,
        "b": 0.0823529437,
        "a": 1.0
      },
      "outputModuleId": 2,
      "outputId": 1,
      "inputModuleId": 10,
      "inputId": 5
    },
    {
      "color": {
        "r": 0.0470588282,
        "g": 0.556862772,
        "b": 0.0823529437,
        "a": 1.0
      },
      "outputModuleId": 10,
      "outputId": 1,
      "inputModuleId": 9,
      "inputId": 5
    },
    {
      "color": {
        "r": 0.0470588282,
        "g": 0.556862772,
        "b": 0.0823529437,
        "a": 1.0
      },
      "outputModuleId": 9,
      "outputId": 1,
      "inputModuleId": 8,
      "inputId": 5
    },
    {
      "color": {
        "r": 0.0470588282,
        "g": 0.556862772,
        "b": 0.0823529437,
        "a": 1.0
      },
      "outputModuleId": 8,
      "outputId": 1,
      "inputModuleId": 7,
      "inputId": 5
    },
    {
      "color": {
        "r": 0.0470588282,
        "g": 0.556862772,
        "b": 0.0823529437,
        "a": 1.0
      },
      "outputModuleId": 7,
      "outputId": 1,
      "inputModuleId": 6,
      "inputId": 5
    },
    {
      "color": {
        "r": 0.0470588282,
        "g": 0.556862772,
        "b": 0.0823529437,
        "a": 1.0
      },
      "outputModuleId": 6,
      "outputId": 1,
      "inputModuleId": 3,
      "inputId": 5
    },
    {
      "color": {
        "r": 0.0470588282,
        "g": 0.556862772,
        "b": 0.0823529437,
        "a": 1.0
      },
      "outputModuleId": 3,
      "outputId": 1,
      "inputModuleId": 1,
      "inputId": 5
    },
    {
      "color": {
        "r": 0.788235366,
        "g": 0.0941176564,
        "b": 0.278431386,
        "a": 1.0
      },
      "outputModuleId": 5,
      "outputId": 2,
      "inputModuleId": 2,
      "inputId": 6
    },
    {
      "color": {
        "r": 0.788235366,
        "g": 0.0941176564,
        "b": 0.278431386,
        "a": 1.0
      },
      "outputModuleId": 2,
      "outputId": 2,
      "inputModuleId": 10,
      "inputId": 6
    },
    {
      "color": {
        "r": 0.788235366,
        "g": 0.0941176564,
        "b": 0.278431386,
        "a": 1.0
      },
      "outputModuleId": 10,
      "outputId": 2,
      "inputModuleId": 9,
      "inputId": 6
    },
    {
      "color": {
        "r": 0.788235366,
        "g": 0.0941176564,
        "b": 0.278431386,
        "a": 1.0
      },
      "outputModuleId": 9,
      "outputId": 2,
      "inputModuleId": 8,
      "inputId": 6
    },
    {
      "color": {
        "r": 0.788235366,
        "g": 0.0941176564,
        "b": 0.278431386,
        "a": 1.0
      },
      "outputModuleId": 8,
      "outputId": 2,
      "inputModuleId": 7,
      "inputId": 6
    },
    {
      "color": {
        "r": 0.788235366,
        "g": 0.0941176564,
        "b": 0.278431386,
        "a": 1.0
      },
      "outputModuleId": 7,
      "outputId": 2,
      "inputModuleId": 6,
      "inputId": 6
    },
    {
      "color": {
        "r": 0.788235366,
        "g": 0.0941176564,
        "b": 0.278431386,
        "a": 1.0
      },
      "outputModuleId": 6,
      "outputId": 2,
      "inputModuleId": 3,
      "inputId": 6
    },
    {
      "color": {
        "r": 0.788235366,
        "g": 0.0941176564,
        "b": 0.278431386,
        "a": 1.0
      },
      "outputModuleId": 3,
      "outputId": 2,
      "inputModuleId": 1,
      "inputId": 6
    },
    {
      "color": {
        "r": 0.0470588282,
        "g": 0.556862772,
        "b": 0.0823529437,
        "a": 1.0
      },
      "outputModuleId": 1,
      "outputId": 1,
      "inputModuleId": 4,
      "inputId": 5
    },
    {
      "color": {
        "r": 0.788235366,
        "g": 0.0941176564,
        "b": 0.278431386,
        "a": 1.0
      },
      "outputModuleId": 1,
      "outputId": 2,
      "inputModuleId": 4,
      "inputId": 6
    },
    {
      "color": {
        "r": 0.0470588282,
        "g": 0.556862772,
        "b": 0.0823529437,
        "a": 1.0
      },
      "outputModuleId": 4,
      "outputId": 1,
      "inputModuleId": 0,
      "inputId": 2
    }
  ]
}